<svg xmlns="http://www.w3.org/2000/svg" width="709.658" height="713.614"><g fill="#e5e5e5"><path d="m312.992 656.25-5.18 31.653 5.543.908-1.34 8.194-5.544-.907-.42 2.57c-.57 3.481-1.638 6.401-3.206 8.757-1.568 2.353-3.524 4.054-5.867 5.101-2.343 1.047-4.934 1.338-7.773.873a21.967 21.967 0 0 1-5.077-1.49 28.421 28.421 0 0 1-4.879-2.695l3.497-7.76c.733.56 1.612 1.074 2.634 1.545 1.024.469 2.017.783 2.98.941 1.822.3 3.319-.117 4.494-1.244 1.174-1.129 1.963-2.924 2.366-5.389l.486-2.97-10.283-1.684 1.342-8.193 10.282 1.681 5.18-31.652 10.765 1.762ZM269.594 646.026c3.333.977 6.165 2.406 8.497 4.293 2.332 1.885 4.137 4.076 5.411 6.576a21.523 21.523 0 0 1 2.29 7.967c.25 2.815-.032 5.614-.847 8.393-.83 2.832-2.108 5.365-3.838 7.6a21.554 21.554 0 0 1-6.226 5.474c-2.421 1.418-5.123 2.29-8.104 2.62-2.98.327-6.137.005-9.47-.972s-6.153-2.404-8.46-4.28c-2.304-1.878-4.109-4.071-5.41-6.577a20.725 20.725 0 0 1-2.29-7.969c-.223-2.806.08-5.627.909-8.459.814-2.78 2.073-5.29 3.775-7.533a21.046 21.046 0 0 1 6.188-5.486c2.422-1.416 5.123-2.287 8.103-2.617 2.98-.329 6.139-.006 9.472.97Zm4.57 24.072c.689-2.351.83-4.568.423-6.658-.406-2.088-1.267-3.88-2.582-5.375-1.314-1.494-2.99-2.539-5.02-3.133-1.979-.58-3.93-.582-5.85-.007s-3.629 1.625-5.124 3.158c-1.495 1.531-2.586 3.47-3.275 5.822-.673 2.3-.797 4.51-.373 6.631.426 2.121 1.295 3.93 2.61 5.424 1.316 1.494 2.963 2.533 4.941 3.113 2.031.594 4.01.604 5.93.03s3.616-1.631 5.085-3.172c1.469-1.54 2.547-3.483 3.235-5.832ZM206.877 658.39c3.034 1.326 6 1.925 8.896 1.8 2.899-.127 5.348-1.054 7.348-2.787l10.332-23.646 9.995 4.367-16.915 38.715-9.175-4.008 3.488-7.982c-2.566 2.078-5.255 3.42-8.068 4.027-2.81.605-5.444.463-7.896-.43l-1.268-.555a3.39 3.39 0 0 1-.714-.4l3.977-9.102ZM200.452 615.87c2.939 1.748 5.302 3.824 7.092 6.23 1.789 2.407 3.009 4.975 3.66 7.702.65 2.728.765 5.482.345 8.26-.421 2.777-1.372 5.412-2.854 7.904-2.056 3.459-4.716 6.154-7.981 8.086-3.263 1.931-6.867 2.896-10.812 2.892-3.943-.004-7.898-1.183-11.863-3.543-4.012-2.385-6.925-5.29-8.74-8.715-1.815-3.425-2.635-7.007-2.462-10.752.175-3.742 1.235-7.253 3.187-10.535.329-.554.69-1.105 1.079-1.654.39-.55.718-.996.985-1.338l28.336 16.85c.898-1.932 1.299-3.854 1.202-5.762s-.645-3.639-1.648-5.191c-1.002-1.553-2.32-2.813-3.954-3.786a12.583 12.583 0 0 0-6.093-1.777c-2.197-.074-4.042.453-5.536 1.586l-6.715-7.023c1.996-1.34 4.253-2.24 6.767-2.702 2.516-.46 5.136-.433 7.86.082 2.724.516 5.44 1.578 8.145 3.186Zm-3.354 27.46-19.171-11.401c-.898 1.935-1.316 3.832-1.252 5.691a10.581 10.581 0 0 0 1.522 5.162c.952 1.584 2.292 2.89 4.018 3.916 1.679.998 3.43 1.531 5.254 1.598s3.566-.319 5.228-1.149c1.663-.832 3.13-2.103 4.4-3.816ZM165.72 620.31c-2.617 3.126-5.61 5.433-8.977 6.92-3.366 1.486-6.772 2.046-10.219 1.679-3.445-.363-6.583-1.728-9.413-4.098-2.414-2.021-4.091-4.435-5.034-7.24s-1.187-5.578-.737-8.314l-15.885 18.976-8.364-7.002 30.306-36.205c.732-.871 1.109-1.619 1.13-2.236.024-.62-.284-1.266-.923-1.942l5.696-6.804c1.7.929 3.008 1.777 3.923 2.541 1.498 1.256 2.423 2.666 2.774 4.234s.084 3.006-.802 4.318l-1.6 2.165c2.915-1.03 5.854-1.223 8.82-.58 2.965.642 5.572 1.904 7.819 3.785s3.956 4.047 5.125 6.496a19.7 19.7 0 0 1 1.935 7.707c.12 2.691-.288 5.375-1.224 8.056-.935 2.684-2.385 5.198-4.35 7.543Zm-22.066-25.762-6.406 7.652c-.575 1.531-.797 3.15-.669 4.857.131 1.703.527 3.303 1.189 4.795.662 1.49 1.554 2.707 2.678 3.647 1.29 1.082 2.678 1.79 4.161 2.13 1.486.34 2.989.385 4.51.13 1.524-.252 2.977-.805 4.363-1.659a15.3 15.3 0 0 0 3.72-3.238c1.093-1.309 1.908-2.725 2.445-4.254s.748-3.07.632-4.625a12.012 12.012 0 0 0-1.21-4.451c-.692-1.412-1.684-2.658-2.974-3.738-.79-.66-1.703-1.2-2.736-1.614a13.004 13.004 0 0 0-3.233-.832 11.159 11.159 0 0 0-3.37.096 9.708 9.708 0 0 0-3.1 1.104ZM129.43 557.114c1.845 2.136 3.116 4.462 3.817 6.976.7 2.516.848 5.076.442 7.686s-1.292 5.115-2.664 7.52c-1.372 2.406-3.169 4.566-5.391 6.486-2.345 2.025-4.845 3.54-7.5 4.541s-5.33 1.504-8.026 1.5a18.36 18.36 0 0 1-7.676-1.65c-2.422-1.098-4.592-2.756-6.508-4.975-2.163-2.504-3.507-5.182-4.03-8.028-.523-2.846-.373-5.702.452-8.566l-5.667 4.895-6.227-7.207 30.533-26.376c3.183-2.75 6.57-4.332 10.165-4.747 3.594-.417 7.163.212 10.71 1.882 3.543 1.672 6.806 4.231 9.786 7.68 3.016 3.49 4.986 6.955 5.908 10.388.923 3.435 1.06 6.937.415 10.506l-8.258-.718c.455-2.543.307-5.123-.445-7.738s-2.032-4.969-3.841-7.061c-1.526-1.766-3.218-3.118-5.076-4.06-1.859-.94-3.798-1.31-5.817-1.107-2.02.203-4.048 1.183-6.087 2.945l-4.065 3.512c2.77-.528 5.502-.252 8.192.83a17.61 17.61 0 0 1 6.857 4.886Zm-8.987 2.922a10.231 10.231 0 0 0-2.667-2.213 12.146 12.146 0 0 0-3.143-1.265 11.73 11.73 0 0 0-3.358-.327c-1.14.054-2.185.24-3.134.556l-7.725 6.673c-.852 1.597-1.37 3.245-1.554 4.948-.184 1.7-.063 3.318.36 4.851a10.44 10.44 0 0 0 2.181 4.086c1.101 1.273 2.363 2.191 3.785 2.756s2.936.798 4.543.7a14.454 14.454 0 0 0 4.677-1.081 15.282 15.282 0 0 0 4.183-2.592c1.318-1.14 2.36-2.431 3.122-3.88.764-1.449 1.232-2.948 1.405-4.495.173-1.548.037-3.08-.409-4.595a10.97 10.97 0 0 0-2.266-4.121ZM98.438 515.48c1.803 2.904 2.946 5.837 3.427 8.796.48 2.959.381 5.8-.297 8.522a21.462 21.462 0 0 1-3.496 7.491c-1.652 2.272-3.71 4.173-6.172 5.703-3.418 2.124-7.02 3.293-10.808 3.504-3.785.212-7.429-.591-10.928-2.41s-6.467-4.687-8.901-8.606c-2.463-3.964-3.711-7.885-3.747-11.76-.035-3.876.886-7.436 2.764-10.679 1.878-3.242 4.437-5.87 7.678-7.883.548-.341 1.122-.665 1.72-.974.6-.309 1.097-.553 1.49-.734l17.398 28.004c1.689-1.303 2.928-2.825 3.72-4.561.793-1.74 1.102-3.528.927-5.37-.175-1.839-.764-3.565-1.767-5.178a12.572 12.572 0 0 0-4.592-4.383c-1.915-1.078-3.796-1.459-5.644-1.142l-2.728-9.326c2.389-.269 4.807-.03 7.251.717 2.447.75 4.76 1.98 6.94 3.69 2.181 1.714 4.104 3.906 5.764 6.579Zm-15.62 22.834-11.77-18.947c-1.688 1.303-2.932 2.796-3.73 4.474a10.564 10.564 0 0 0-1.025 5.285c.115 1.844.703 3.62 1.763 5.326 1.03 1.658 2.34 2.938 3.928 3.835a10.662 10.662 0 0 0 5.17 1.39c1.86.026 3.748-.429 5.664-1.363ZM74.798 471.106l-29.98 11.397 1.996 5.251-7.761 2.95-1.996-5.25-2.436.926c-3.297 1.253-6.357 1.793-9.181 1.618s-5.277-1.013-7.358-2.515c-2.08-1.503-3.632-3.597-4.654-6.287a21.907 21.907 0 0 1-1.257-5.138 28.404 28.404 0 0 1-.116-5.573l8.467-.868c-.116.915-.121 1.933-.015 3.053.107 1.121.333 2.138.68 3.051.656 1.726 1.766 2.812 3.33 3.264 1.565.45 3.516.23 5.849-.657l2.814-1.07-3.702-9.74 7.762-2.949 3.702 9.738 29.98-11.396 3.876 10.195ZM61.904 428.467c.824 3.374 1.004 6.542.54 9.505s-1.457 5.622-2.981 7.978a21.51 21.51 0 0 1-5.751 5.97c-2.31 1.628-4.873 2.783-7.688 3.47-2.866.702-5.7.863-8.5.485a21.523 21.523 0 0 1-7.857-2.647c-2.438-1.387-4.546-3.29-6.324-5.703-1.777-2.415-3.08-5.309-3.903-8.683-.825-3.373-1.002-6.53-.532-9.466.472-2.935 1.466-5.595 2.983-7.977a20.719 20.719 0 0 1 5.752-5.972c2.316-1.598 4.908-2.749 7.775-3.45 2.815-.689 5.618-.856 8.412-.505a21.026 21.026 0 0 1 7.846 2.608c2.44 1.388 4.548 3.289 6.325 5.704 1.777 2.414 3.08 5.31 3.903 8.683ZM43.357 444.48c2.38-.582 4.37-1.57 5.975-2.969 1.603-1.397 2.725-3.04 3.36-4.927.634-1.886.7-3.858.198-5.915-.49-2.003-1.464-3.691-2.924-5.067-1.46-1.374-3.225-2.325-5.299-2.854-2.075-.525-4.3-.499-6.68.082-2.329.57-4.303 1.57-5.928 3-1.622 1.43-2.75 3.088-3.386 4.974-.635 1.889-.708 3.833-.219 5.836.502 2.055 1.483 3.772 2.942 5.147 1.46 1.376 3.224 2.313 5.291 2.814 2.069.5 4.291.459 6.67-.121ZM19.799 380.35c.37 3.29 1.338 6.157 2.896 8.603 1.56 2.445 3.59 4.1 6.09 4.964l25.643-2.895 1.223 10.84-41.982 4.74-1.123-9.95 8.655-.977c-3.082-1.18-5.59-2.837-7.523-4.968-1.934-2.128-3.128-4.48-3.582-7.05-.067-.593-.12-1.051-.155-1.374a3.508 3.508 0 0 1-.011-.818l9.869-1.114ZM53.38 353.506c-.038 3.418-.651 6.505-1.836 9.26-1.185 2.753-2.796 5.096-4.831 7.026-2.034 1.93-4.36 3.41-6.975 4.438s-5.37 1.525-8.268 1.492c-4.025-.047-7.69-.997-10.998-2.854-3.307-1.857-5.948-4.492-7.92-7.908-1.974-3.414-2.935-7.427-2.881-12.04.054-4.668 1.108-8.644 3.161-11.931 2.055-3.286 4.744-5.794 8.07-7.52 3.326-1.723 6.898-2.565 10.713-2.52a24.92 24.92 0 0 1 1.975.102c.67.063 1.22.124 1.65.183l-.38 32.967c2.123-.193 3.986-.809 5.588-1.849 1.604-1.04 2.826-2.382 3.667-4.028.841-1.645 1.272-3.418 1.294-5.318.025-2.17-.48-4.224-1.516-6.164-1.037-1.937-2.417-3.27-4.147-3.997l2.713-9.329c2.16 1.055 4.07 2.558 5.728 4.502 1.66 1.946 2.95 4.228 3.87 6.843.918 2.616 1.36 5.499 1.324 8.645Zm-25.443 10.86.258-22.304c-2.124.192-3.974.781-5.55 1.767-1.576.987-2.811 2.288-3.705 3.906s-1.352 3.431-1.376 5.438c-.022 1.953.395 3.738 1.251 5.347a10.647 10.647 0 0 0 3.615 3.95c1.552 1.022 3.388 1.654 5.507 1.896ZM32.135 325.654c-4.019-.689-7.518-2.116-10.496-4.278-2.979-2.163-5.176-4.824-6.594-7.986-1.419-3.161-1.816-6.56-1.193-10.198.532-3.102 1.774-5.767 3.724-7.992 1.951-2.226 4.223-3.832 6.815-4.82L0 286.198l1.844-10.752 46.535 7.981c1.123.191 1.958.143 2.504-.15.545-.29.95-.882 1.213-1.774l8.745 1.5c.052 1.937-.022 3.494-.223 4.67-.33 1.925-1.085 3.435-2.263 4.526-1.178 1.091-2.556 1.585-4.135 1.48l-2.675-.294c2.354 2 4.001 4.444 4.936 7.33.937 2.886 1.158 5.773.663 8.661-.495 2.888-1.507 5.455-3.035 7.698a19.716 19.716 0 0 1-5.69 5.55c-2.264 1.457-4.79 2.454-7.578 2.994-2.788.541-5.69.552-8.706.036ZM43.3 293.622l-9.837-1.687c-1.614.274-3.125.897-4.534 1.866a14.447 14.447 0 0 0-3.546 3.44c-.956 1.322-1.559 2.705-1.807 4.15-.284 1.658-.2 3.214.253 4.669a11.523 11.523 0 0 0 2.157 3.962c.985 1.188 2.194 2.166 3.63 2.934a15.27 15.27 0 0 0 4.67 1.586c1.679.287 3.314.28 4.904-.026 1.592-.306 3.03-.898 4.316-1.78a12.031 12.031 0 0 0 3.238-3.285c.872-1.308 1.45-2.793 1.734-4.45a10.06 10.06 0 0 0 .02-3.178 12.964 12.964 0 0 0-.908-3.211 11.137 11.137 0 0 0-1.777-2.867 9.789 9.789 0 0 0-2.513-2.123ZM68.472 262.565c-.92 2.669-2.29 4.937-4.11 6.807a18.024 18.024 0 0 1-6.423 4.245c-2.459.962-5.072 1.456-7.84 1.477-2.768.024-5.54-.442-8.317-1.4-2.93-1.007-5.495-2.408-7.696-4.198-2.2-1.79-3.979-3.851-5.332-6.182a18.41 18.41 0 0 1-2.433-7.467c-.267-2.646.075-5.356 1.029-8.126 1.077-3.13 2.715-5.638 4.914-7.52 2.197-1.884 4.743-3.189 7.632-3.916l-7.082-2.439 3.101-9.005 38.151 13.134c3.976 1.37 7.047 3.502 9.213 6.4 2.167 2.898 3.42 6.3 3.757 10.203.337 3.905-.235 8.011-1.719 12.322-1.502 4.362-3.505 7.804-6.01 10.33-2.504 2.524-5.462 4.403-8.872 5.64l-3.53-7.5c2.427-.886 4.583-2.31 6.464-4.275 1.882-1.963 3.273-4.254 4.174-6.871.759-2.206 1.077-4.35.958-6.429-.123-2.078-.778-3.94-1.968-5.584-1.191-1.643-3.059-2.903-5.606-3.78l-5.08-1.75c1.85 2.13 2.984 4.63 3.402 7.5.417 2.87.16 5.665-.777 8.384Zm-7.044-6.3c.388-1.127.58-2.268.573-3.418a12.146 12.146 0 0 0-.487-3.353 11.7 11.7 0 0 0-1.406-3.067c-.62-.958-1.305-1.77-2.057-2.43l-9.652-3.32c-1.807.064-3.494.445-5.057 1.14-1.564.699-2.902 1.614-4.013 2.752a10.454 10.454 0 0 0-2.437 3.94c-.546 1.59-.706 3.144-.479 4.655.228 1.514.787 2.94 1.679 4.28a14.43 14.43 0 0 0 3.287 3.5c1.3.994 2.747 1.763 4.343 2.312 1.647.569 3.289.818 4.923.748a12.518 12.518 0 0 0 4.592-1.045 11.562 11.562 0 0 0 3.768-2.663 10.978 10.978 0 0 0 2.423-4.03ZM88.927 214.862c-1.61 3.016-3.575 5.473-5.896 7.373-2.32 1.898-4.829 3.235-7.524 4.011a21.448 21.448 0 0 1-8.235.727c-2.793-.292-5.47-1.121-8.027-2.485-3.55-1.895-6.366-4.427-8.447-7.6-2.08-3.169-3.21-6.726-3.388-10.665-.177-3.94.818-7.944 2.99-12.016 2.198-4.116 4.965-7.16 8.301-9.132 3.337-1.971 6.88-2.957 10.627-2.957 3.746.001 7.304.899 10.67 2.696.57.303 1.137.64 1.704 1.003s1.028.67 1.382.92l-15.523 29.086c1.973.81 3.91 1.119 5.812.934 1.902-.184 3.606-.812 5.11-1.888 1.504-1.07 2.703-2.446 3.598-4.123a12.58 12.58 0 0 0 1.493-6.168c-.027-2.199-.638-4.017-1.84-5.457l6.707-7.033c1.43 1.932 2.433 4.144 3.01 6.635.577 2.492.672 5.11.283 7.856-.39 2.744-1.324 5.507-2.807 8.283Zm-27.585-2.081 10.5-19.678c-1.973-.807-3.887-1.137-5.74-.987s-3.548.736-5.086 1.76c-1.54 1.024-2.782 2.422-3.727 4.193-.92 1.724-1.371 3.5-1.352 5.322a10.64 10.64 0 0 0 1.39 5.17c.905 1.624 2.244 3.031 4.015 4.22ZM115.504 172.211l-24.866-20.257-3.548 4.356-6.438-5.244 3.548-4.357-2.02-1.644c-2.734-2.228-4.733-4.608-5.994-7.14-1.261-2.533-1.762-5.076-1.502-7.63.26-2.552 1.298-4.943 3.114-7.174a22 22 0 0 1 3.821-3.66 28.501 28.501 0 0 1 4.768-2.888l4.986 6.897c-.85.357-1.734.861-2.651 1.514-.917.655-1.684 1.36-2.301 2.116-1.165 1.432-1.552 2.936-1.16 4.517.394 1.58 1.558 3.158 3.494 4.733l2.335 1.903 6.581-8.079 6.438 5.245-6.582 8.078 24.867 20.258-6.89 8.456ZM145.984 139.684c-2.506 2.405-5.158 4.148-7.954 5.231-2.797 1.082-5.595 1.556-8.398 1.417a21.52 21.52 0 0 1-8.049-1.984c-2.565-1.184-4.85-2.822-6.856-4.914-2.042-2.13-3.603-4.5-4.679-7.112a21.549 21.549 0 0 1-1.647-8.126c-.021-2.804.569-5.582 1.767-8.332s3.05-5.325 5.558-7.73c2.506-2.402 5.148-4.137 7.925-5.201s5.577-1.537 8.398-1.417a20.7 20.7 0 0 1 8.05 1.984c2.546 1.204 4.84 2.87 6.883 5 2.004 2.091 3.555 4.434 4.652 7.027 1.096 2.593 1.653 5.291 1.675 8.097s-.568 5.582-1.766 8.331c-1.2 2.748-3.053 5.326-5.559 7.729Zm-23.151-8.025c1.696 1.767 3.55 2.994 5.564 3.682 2.012.688 3.995.835 5.947.438 1.95-.396 3.69-1.327 5.217-2.792 1.488-1.428 2.462-3.118 2.92-5.07.459-1.952.397-3.957-.186-6.015-.584-2.06-1.723-3.972-3.418-5.74-1.66-1.729-3.514-2.938-5.565-3.627-2.051-.687-4.052-.832-6.003-.436-1.951.395-3.671 1.307-5.16 2.733-1.527 1.465-2.521 3.174-2.979 5.126-.459 1.953-.387 3.949.217 5.989.603 2.04 1.752 3.944 3.446 5.712ZM166.451 79.117c-2.658 1.973-4.651 4.25-5.982 6.828-1.33 2.576-1.74 5.164-1.232 7.76l15.391 20.713-8.756 6.505-25.197-33.912 8.037-5.972 5.195 6.993c-.53-3.26-.357-6.26.513-9.002.869-2.74 2.3-4.954 4.295-6.64l1.111-.825c.26-.194.495-.333.701-.421l5.924 7.972ZM206.544 94.63c-2.974 1.686-5.95 2.71-8.926 3.073-2.976.362-5.811.149-8.504-.638a21.444 21.444 0 0 1-7.344-3.793c-2.205-1.743-4.022-3.874-5.452-6.396-1.985-3.5-3.01-7.146-3.069-10.938-.06-3.792.888-7.4 2.846-10.824 1.957-3.422 4.942-6.274 8.955-8.55 4.06-2.302 8.026-3.392 11.9-3.274 3.874.122 7.394 1.185 10.56 3.19 3.164 2.006 5.688 4.669 7.57 7.988.318.56.62 1.148.904 1.758.284.611.508 1.118.674 1.517L187.98 84.008c1.235 1.738 2.706 3.037 4.41 3.899 1.706.862 3.48 1.243 5.327 1.14 1.844-.101 3.593-.621 5.246-1.557a12.606 12.606 0 0 0 4.562-4.413c1.154-1.87 1.61-3.735 1.367-5.594l9.428-2.353c.174 2.397-.163 4.804-1.007 7.215-.847 2.415-2.168 4.678-3.966 6.79-1.798 2.108-4.066 3.941-6.803 5.494Zm-22.19-16.521 19.402-11.002c-1.237-1.74-2.676-3.041-4.32-3.907-1.647-.865-3.393-1.278-5.24-1.236s-3.646.559-5.392 1.549c-1.7.964-3.03 2.222-3.99 3.772a10.634 10.634 0 0 0-1.594 5.11c-.103 1.857.275 3.762 1.134 5.714ZM219.906 62.247c-1.42-3.82-1.942-7.564-1.565-11.225s1.576-6.898 3.6-9.711c2.023-2.813 4.764-4.861 8.224-6.148 2.95-1.095 5.878-1.357 8.782-.788 2.904.572 5.433 1.733 7.588 3.479l-8.618-23.2 10.225-3.797 16.442 44.258c.397 1.069.858 1.766 1.385 2.091.525.327 1.24.38 2.143.16l3.09 8.318c-1.65 1.016-3.032 1.734-4.151 2.148-1.831.682-3.516.786-5.051.314-1.536-.47-2.653-1.415-3.355-2.834l-1.087-2.463c-.55 3.043-1.837 5.692-3.865 7.95-2.026 2.257-4.414 3.897-7.16 4.918-2.748 1.02-5.476 1.432-8.182 1.234a19.701 19.701 0 0 1-7.655-2.136c-2.395-1.228-4.526-2.913-6.393-5.054-1.867-2.14-3.332-4.646-4.397-7.514Zm33.31-6.41-3.476-9.357c-1.047-1.257-2.344-2.252-3.887-2.986a14.447 14.447 0 0 0-4.755-1.341c-1.623-.163-3.122.008-4.496.52-1.578.585-2.882 1.439-3.912 2.56-1.032 1.12-1.813 2.406-2.346 3.853s-.773 2.985-.718 4.611c.054 1.627.378 3.24.97 4.835.594 1.598 1.421 3.008 2.484 4.232s2.297 2.17 3.704 2.84c1.406.672 2.896 1.055 4.466 1.153s3.144-.147 4.722-.733c.965-.359 1.885-.884 2.756-1.578a12.952 12.952 0 0 0 2.324-2.395 11.102 11.102 0 0 0 1.587-2.976 9.771 9.771 0 0 0 .577-3.238ZM292.734 62.057c-2.77.54-5.42.49-7.95-.152a18.013 18.013 0 0 1-6.891-3.431c-2.064-1.649-3.798-3.661-5.204-6.048-1.406-2.384-2.39-5.018-2.952-7.9-.593-3.04-.667-5.962-.218-8.765.448-2.8 1.342-5.372 2.682-7.71a18.373 18.373 0 0 1 5.246-5.845c2.156-1.555 4.673-2.616 7.55-3.177 3.247-.635 6.238-.472 8.97.487 2.73.96 5.135 2.51 7.21 4.647l-1.435-7.35 9.348-1.825 7.732 39.6c.806 4.127.496 7.855-.927 11.18-1.425 3.327-3.743 6.114-6.953 8.361-3.21 2.246-7.053 3.807-11.527 4.681-4.528.885-8.51.874-11.95-.031-3.44-.905-6.547-2.524-9.325-4.855l4.725-6.812c1.983 1.658 4.294 2.81 6.937 3.457 2.641.645 5.321.701 8.038.172 2.29-.447 4.304-1.245 6.044-2.39 1.738-1.146 3.021-2.645 3.85-4.499.826-1.853.982-4.102.465-6.746l-1.029-5.273c-.918 2.668-2.514 4.902-4.79 6.7s-4.823 2.973-7.646 3.524Zm1.926-9.25c1.171-.23 2.253-.634 3.246-1.217a12.164 12.164 0 0 0 2.66-2.1c.779-.818 1.43-1.736 1.95-2.753.52-1.016.878-2.014 1.074-2.997l-1.956-10.018c-.963-1.531-2.137-2.8-3.522-3.805-1.385-1.005-2.85-1.705-4.39-2.096a10.418 10.418 0 0 0-4.63-.137c-1.652.322-3.075.962-4.27 1.916-1.197.955-2.152 2.152-2.865 3.595a14.44 14.44 0 0 0-1.384 4.597c-.21 1.623-.151 3.26.172 4.917.334 1.711.94 3.256 1.818 4.638a12.539 12.539 0 0 0 3.204 3.451 11.562 11.562 0 0 0 4.192 1.929 11 11 0 0 0 4.701.08ZM344.243 55.881c-3.417.118-6.528-.352-9.334-1.409-2.805-1.058-5.22-2.558-7.241-4.503a21.45 21.45 0 0 1-4.754-6.763c-1.147-2.564-1.77-5.296-1.871-8.192-.138-4.022.643-7.729 2.346-11.117 1.702-3.388 4.214-6.148 7.535-8.276 3.32-2.127 7.285-3.272 11.895-3.43 4.665-.161 8.686.71 12.064 2.61 3.377 1.9 6.005 4.47 7.882 7.714 1.876 3.244 2.88 6.772 3.011 10.587a24.76 24.76 0 0 1-.012 1.976 40.958 40.958 0 0 1-.107 1.658l-32.949 1.135c.29 2.113.991 3.945 2.104 5.497 1.112 1.554 2.51 2.713 4.192 3.478s3.473 1.113 5.371 1.049c2.169-.076 4.2-.675 6.088-1.8s3.156-2.564 3.802-4.325l9.445 2.282c-.956 2.205-2.368 4.181-4.234 5.928-1.868 1.749-4.087 3.142-6.657 4.18-2.572 1.04-5.43 1.613-8.576 1.721Zm-12.017-24.918 22.292-.766c-.291-2.115-.964-3.935-2.02-5.464a10.587 10.587 0 0 0-4.073-3.522c-1.657-.818-3.49-1.193-5.496-1.124-1.952.067-3.715.567-5.284 1.496s-2.83 2.194-3.779 3.791c-.95 1.599-1.497 3.462-1.64 5.59ZM394.519 57.482l4.998-31.68-5.548-.877 1.294-8.201 5.547.875.407-2.573c.55-3.485 1.6-6.409 3.156-8.773 1.554-2.363 3.499-4.076 5.837-5.136 2.337-1.06 4.926-1.366 7.768-.917 1.715.27 3.41.758 5.085 1.461a28.354 28.354 0 0 1 4.894 2.668l-3.452 7.779c-.736-.555-1.618-1.066-2.643-1.53-1.027-.463-2.02-.772-2.986-.925-1.823-.287-3.317.137-4.485 1.271s-1.947 2.935-2.336 5.4l-.47 2.975 10.293 1.624-1.294 8.202-10.292-1.625-4.999 31.683-10.774-1.702ZM437.957 67.45c-3.339-.957-6.18-2.37-8.523-4.243-2.342-1.87-4.16-4.052-5.449-6.545a21.518 21.518 0 0 1-2.336-7.953c-.267-2.813-.002-5.612.796-8.397.814-2.837 2.077-5.378 3.793-7.622a21.54 21.54 0 0 1 6.195-5.512c2.413-1.43 5.11-2.318 8.089-2.666 2.978-.347 6.136-.042 9.476.914 3.338.957 6.166 2.367 8.484 4.232 2.315 1.865 4.132 4.045 5.449 6.544a20.714 20.714 0 0 1 2.336 7.956c.24 2.805-.046 5.626-.859 8.462-.798 2.786-2.042 5.304-3.731 7.557a21.034 21.034 0 0 1-6.154 5.522c-2.415 1.43-5.11 2.319-8.09 2.665-2.978.347-6.137.043-9.476-.915Zm-4.71-24.045c-.677 2.355-.804 4.574-.386 6.66.42 2.086 1.29 3.872 2.615 5.36 1.323 1.487 3.003 2.522 5.038 3.104 1.981.567 3.931.558 5.85-.027 1.917-.586 3.619-1.647 5.105-3.187 1.486-1.541 2.566-3.487 3.241-5.843.66-2.303.77-4.515.333-6.633-.438-2.12-1.318-3.922-2.642-5.408-1.325-1.487-2.977-2.516-4.96-3.084-2.034-.582-4.011-.581-5.928.006-1.918.584-3.607 1.651-5.067 3.2-1.46 1.548-2.526 3.498-3.2 5.852ZM500.63 54.73c-3.041-1.306-6.01-1.888-8.906-1.745-2.898.141-5.341 1.086-7.331 2.827l-10.194 23.707-10.021-4.309 16.69-38.813 9.198 3.956-3.441 8.002c2.553-2.093 5.234-3.45 8.043-4.073 2.808-.623 5.441-.496 7.898.383l1.272.546c.299.13.537.262.716.398l-3.923 9.122ZM507.297 97.21c-2.95-1.73-5.324-3.794-7.128-6.188-1.804-2.397-3.038-4.957-3.705-7.682a21.436 21.436 0 0 1-.393-8.258c.405-2.779 1.34-5.42 2.807-7.919 2.037-3.471 4.681-6.182 7.934-8.133 3.252-1.95 6.851-2.936 10.795-2.953 3.943-.02 7.905 1.137 11.884 3.471 4.025 2.363 6.954 5.252 8.79 8.664 1.834 3.414 2.677 6.994 2.525 10.737-.153 3.744-1.194 7.262-3.124 10.553a25.14 25.14 0 0 1-1.07 1.663c-.387.551-.714.998-.977 1.342L507.2 75.821c-.888 1.94-1.276 3.864-1.168 5.771.107 1.908.666 3.635 1.679 5.182 1.01 1.546 2.336 2.8 3.974 3.762a12.57 12.57 0 0 0 6.105 1.74c2.196.062 4.038-.476 5.526-1.617l6.756 6.984c-1.988 1.352-4.24 2.265-6.752 2.74-2.514.477-5.133.465-7.86-.035-2.727-.5-5.45-1.546-8.163-3.139Zm3.194-27.48L529.73 81.02c.886-1.94 1.291-3.839 1.218-5.695a10.57 10.57 0 0 0-1.553-5.156c-.961-1.578-2.308-2.876-4.04-3.891-1.684-.99-3.44-1.512-5.263-1.567a10.644 10.644 0 0 0-5.222 1.179c-1.658.84-3.118 2.121-4.378 3.842ZM542.017 92.58c2.6-3.142 5.579-5.465 8.937-6.971 3.359-1.505 6.76-2.085 10.21-1.74 3.447.345 6.592 1.693 9.437 4.046 2.423 2.005 4.116 4.41 5.075 7.21.958 2.8 1.219 5.57.785 8.309l15.775-19.066 8.405 6.954-30.099 36.378c-.727.877-1.099 1.625-1.117 2.244-.02.618.292 1.263.935 1.935l-5.658 6.837c-1.705-.92-3.018-1.759-3.938-2.519-1.505-1.246-2.438-2.652-2.797-4.216-.36-1.567-.102-3.006.776-4.325l1.587-2.172c-2.908 1.044-5.847 1.255-8.815.63-2.969-.626-5.583-1.873-7.841-3.74s-3.978-4.024-5.162-6.466a19.708 19.708 0 0 1-1.979-7.698c-.135-2.69.257-5.377 1.178-8.063.919-2.688 2.355-5.21 4.306-7.567Zm22.213 25.635 6.364-7.69c.565-1.535.778-3.156.64-4.859a14.388 14.388 0 0 0-1.216-4.788c-.671-1.488-1.57-2.7-2.7-3.634-1.295-1.073-2.687-1.774-4.173-2.105a11.506 11.506 0 0 0-4.51-.105c-1.522.263-2.972.825-4.353 1.686a15.2 15.2 0 0 0-3.7 3.26c-1.087 1.312-1.895 2.734-2.422 4.265a11.306 11.306 0 0 0-.607 4.63 12.015 12.015 0 0 0 1.236 4.443c.701 1.408 1.7 2.649 2.996 3.721.794.657 1.71 1.19 2.746 1.599 1.036.407 2.114.679 3.237.812a11.1 11.1 0 0 0 3.37-.114 9.75 9.75 0 0 0 3.092-1.121ZM578.654 155.55c-1.856-2.126-3.141-4.444-3.857-6.953a18.029 18.029 0 0 1-.486-7.684c.39-2.612 1.262-5.123 2.62-7.535 1.358-2.413 3.143-4.585 5.354-6.516 2.334-2.04 4.824-3.568 7.473-4.585s5.321-1.536 8.018-1.548a18.388 18.388 0 0 1 7.686 1.607c2.428 1.084 4.607 2.73 6.536 4.937 2.178 2.49 3.537 5.16 4.077 8.004.54 2.843.405 5.702-.403 8.569l5.639-4.929 6.268 7.171-30.38 26.554c-3.167 2.767-6.546 4.368-10.137 4.805-3.592.436-7.165-.172-10.72-1.82-3.554-1.651-6.832-4.193-9.832-7.625-3.036-3.473-5.025-6.925-5.967-10.353-.943-3.428-1.101-6.93-.476-10.503l8.261.67c-.44 2.547-.277 5.127.49 7.736a18.523 18.523 0 0 0 3.882 7.04c1.535 1.755 3.237 3.099 5.099 4.03 1.864.93 3.806 1.285 5.823 1.073 2.019-.215 4.042-1.208 6.07-2.98l4.046-3.536c-2.768.544-5.5.283-8.198-.782a17.604 17.604 0 0 1-6.886-4.848Zm8.97-2.975c.785.9 1.678 1.631 2.68 2.199 1 .566 2.05.981 3.15 1.248 1.1.262 2.22.365 3.36.305 1.14-.06 2.184-.25 3.131-.574l7.686-6.717c.843-1.602 1.352-3.252 1.526-4.956.174-1.703.044-3.318-.388-4.85a10.433 10.433 0 0 0-2.205-4.072c-1.107-1.268-2.374-2.18-3.8-2.735-1.425-.556-2.94-.781-4.547-.674a14.431 14.431 0 0 0-4.671 1.109 15.268 15.268 0 0 0-4.167 2.616c-1.313 1.146-2.347 2.444-3.1 3.898-.756 1.452-1.215 2.954-1.38 4.503s-.02 3.08.435 4.593a10.993 10.993 0 0 0 2.29 4.107ZM609.887 197.002c-1.822-2.893-2.98-5.819-3.479-8.774-.498-2.958-.415-5.799.247-8.525s1.815-5.23 3.453-7.512c1.64-2.281 3.686-4.195 6.138-5.738 3.406-2.143 7.002-3.333 10.788-3.566 3.784-.234 7.433.548 10.943 2.347 3.51 1.798 6.494 4.65 8.95 8.554 2.486 3.95 3.758 7.863 3.815 11.739.057 3.874-.844 7.438-2.702 10.693-1.858 3.252-4.403 5.898-7.633 7.929-.546.344-1.118.67-1.714.984-.598.31-1.093.558-1.486.742l-17.56-27.904c-1.68 1.314-2.91 2.842-3.693 4.584-.783 1.744-1.082 3.534-.895 5.373.185 1.838.784 3.562 1.797 5.17a12.576 12.576 0 0 0 4.617 4.356c1.92 1.066 3.805 1.437 5.65 1.109l2.782 9.31c-2.387.284-4.806.057-7.254-.676-2.452-.734-4.772-1.952-6.962-3.65-2.19-1.7-4.126-3.882-5.802-6.545Zm15.486-22.923 11.88 18.878c1.68-1.314 2.915-2.813 3.705-4.495a10.585 10.585 0 0 0 .994-5.29c-.127-1.844-.725-3.617-1.795-5.315-1.04-1.656-2.357-2.927-3.95-3.815a10.673 10.673 0 0 0-5.179-1.358c-1.86-.017-3.744.447-5.655 1.395ZM633.778 241.226l29.912-11.573-2.026-5.239 7.744-2.995 2.026 5.238 2.43-.94c3.29-1.273 6.347-1.831 9.173-1.673 2.824.158 5.281.982 7.371 2.474 2.09 1.49 3.653 3.574 4.692 6.257a21.941 21.941 0 0 1 1.287 5.132c.23 1.801.28 3.659.148 5.573l-8.46.917c.11-.915.109-1.934-.004-3.054-.114-1.121-.346-2.136-.699-3.046-.666-1.72-1.782-2.803-3.35-3.243-1.566-.442-3.514-.212-5.842.69l-2.809 1.085 3.76 9.72-7.744 2.995-3.76-9.719-29.913 11.575-3.936-10.174ZM646.925 283.8c-.844-3.369-1.042-6.535-.596-9.5s1.425-5.632 2.936-7.996a21.52 21.52 0 0 1 5.714-6.005c2.301-1.64 4.857-2.812 7.667-3.515 2.864-.718 5.696-.896 8.498-.536s5.425 1.228 7.873 2.602c2.445 1.373 4.564 3.263 6.358 5.666 1.79 2.405 3.11 5.29 3.954 8.66.844 3.37 1.038 6.524.586 9.463-.454 2.938-1.433 5.603-2.936 7.994a20.732 20.732 0 0 1-5.715 6.007c-2.309 1.611-4.893 2.777-7.755 3.494-2.81.705-5.615.889-8.41.555a21.018 21.018 0 0 1-7.862-2.563c-2.447-1.372-4.565-3.26-6.357-5.665s-3.111-5.292-3.955-8.66Zm18.454-16.119c-2.377.595-4.362 1.595-5.958 3.003-1.596 1.406-2.706 3.056-3.33 4.946-.624 1.889-.678 3.862-.164 5.915.5 2 1.485 3.684 2.953 5.05s3.238 2.309 5.316 2.823c2.077.514 4.303.474 6.68-.12 2.324-.584 4.293-1.595 5.91-3.034 1.612-1.44 2.733-3.107 3.357-4.996.623-1.89.685-3.836.184-5.836-.514-2.054-1.506-3.765-2.973-5.13-1.467-1.367-3.237-2.294-5.307-2.782-2.071-.488-4.294-.436-6.668.16ZM689.313 331.671c-.391-3.288-1.374-6.148-2.947-8.585-1.574-2.436-3.614-4.079-6.119-4.93l-25.625 3.045-1.288-10.83 41.954-4.987 1.182 9.943-8.65 1.028c3.09 1.162 5.608 2.803 7.553 4.923 1.945 2.117 3.154 4.462 3.623 7.029l.163 1.375c.04.323.043.596.016.817l-9.863 1.172ZM655.887 358.708c.02-3.419.615-6.509 1.783-9.27 1.17-2.76 2.767-5.114 4.79-7.054a21.439 21.439 0 0 1 6.95-4.48c2.607-1.042 5.361-1.554 8.26-1.538 4.023.022 7.695.95 11.014 2.79 3.317 1.835 5.972 4.457 7.965 7.86 1.993 3.402 2.978 7.411 2.95 12.024-.026 4.667-1.057 8.65-3.091 11.95-2.035 3.297-4.71 5.82-8.027 7.565-3.315 1.744-6.882 2.606-10.698 2.584a24.42 24.42 0 0 1-1.975-.093 39.106 39.106 0 0 1-1.65-.173l.189-32.968c-2.123.205-3.982.833-5.579 1.881-1.597 1.05-2.811 2.399-3.643 4.05-.831 1.65-1.252 3.426-1.263 5.325a12.574 12.574 0 0 0 1.552 6.155c1.048 1.932 2.436 3.256 4.17 3.972l-2.658 9.346c-2.166-1.043-4.084-2.534-5.755-4.469-1.672-1.936-2.975-4.21-3.91-6.821-.933-2.61-1.392-5.488-1.374-8.636Zm25.38-11.007-.127 22.304c2.122-.204 3.969-.805 5.539-1.799a10.58 10.58 0 0 0 3.682-3.926c.885-1.623 1.332-3.44 1.344-5.447.01-1.954-.416-3.735-1.282-5.34a10.642 10.642 0 0 0-3.637-3.928c-1.558-1.014-3.398-1.635-5.518-1.864ZM677.294 386.417c4.023.666 7.531 2.072 10.521 4.216 2.99 2.146 5.204 4.794 6.641 7.948 1.436 3.154 1.854 6.55 1.252 10.19-.514 3.106-1.74 5.779-3.678 8.014-1.938 2.239-4.2 3.857-6.786 4.86l24.414 4.04-1.78 10.763-46.581-7.71c-1.125-.185-1.96-.131-2.503.165-.543.294-.944.887-1.202 1.78l-8.754-1.448c-.064-1.936.001-3.494.195-4.671.32-1.927 1.065-3.442 2.237-4.54 1.171-1.098 2.546-1.599 4.127-1.503l2.676.278c-2.366-1.988-4.026-4.42-4.98-7.3-.952-2.883-1.19-5.768-.712-8.659.478-2.892 1.476-5.464 2.99-7.715a19.719 19.719 0 0 1 5.656-5.583c2.256-1.47 4.777-2.483 7.562-3.039 2.784-.558 5.686-.585 8.705-.086Zm-10.978 32.096 9.848 1.63c1.611-.283 3.12-.915 4.523-1.892a14.455 14.455 0 0 0 3.525-3.46c.948-1.329 1.543-2.714 1.782-4.16.275-1.661.182-3.218-.28-4.668a11.518 11.518 0 0 0-2.18-3.95c-.991-1.183-2.206-2.153-3.645-2.914s-2.998-1.28-4.679-1.558a13.623 13.623 0 0 0-4.906.055c-1.59.315-3.026.915-4.305 1.804a12.02 12.02 0 0 0-3.219 3.304c-.864 1.314-1.434 2.802-1.709 4.462a10.071 10.071 0 0 0 0 3.177c.17 1.1.477 2.168.927 3.206a11.113 11.113 0 0 0 1.794 2.855 9.757 9.757 0 0 0 2.524 2.11ZM641.322 449.735c.904-2.673 2.262-4.95 4.072-6.83a17.995 17.995 0 0 1 6.396-4.284c2.453-.976 5.064-1.485 7.831-1.523 2.768-.04 5.543.411 8.325 1.35 2.936.992 5.51 2.376 7.721 4.154 2.211 1.778 4.001 3.829 5.368 6.152a18.383 18.383 0 0 1 2.477 7.452c.283 2.644-.043 5.356-.98 8.133-1.06 3.136-2.683 5.652-4.87 7.548-2.187 1.895-4.724 3.217-7.61 3.96l7.096 2.397-3.048 9.024-38.228-12.91c-3.983-1.344-7.067-3.461-9.25-6.346-2.183-2.885-3.456-6.28-3.817-10.182-.36-3.901.188-8.012 1.647-12.33 1.476-4.372 3.46-7.828 5.95-10.366 2.489-2.54 5.436-4.436 8.838-5.692l3.575 7.48c-2.422.9-4.57 2.336-6.44 4.312a18.5 18.5 0 0 0-4.133 6.895c-.747 2.21-1.052 4.356-.92 6.434.134 2.079.801 3.935 2 5.574 1.202 1.637 3.077 2.885 5.628 3.747l5.091 1.72c-1.862-2.12-3.012-4.614-3.446-7.48a17.613 17.613 0 0 1 .727-8.39Zm7.081 6.257a10.248 10.248 0 0 0-.553 3.423c.015 1.15.183 2.266.506 3.351a11.74 11.74 0 0 0 1.424 3.057c.626.956 1.317 1.762 2.071 2.419l9.671 3.266c1.808-.078 3.493-.47 5.051-1.174 1.56-.707 2.892-1.63 3.997-2.775a10.443 10.443 0 0 0 2.413-3.953c.538-1.595.689-3.148.452-4.658-.236-1.513-.803-2.936-1.703-4.27a14.49 14.49 0 0 0-3.307-3.48 15.28 15.28 0 0 0-4.357-2.289c-1.651-.556-3.294-.797-4.928-.718-1.636.078-3.165.434-4.586 1.073a11.544 11.544 0 0 0-3.751 2.684 10.978 10.978 0 0 0-2.4 4.044ZM621.16 497.534c1.592-3.028 3.543-5.497 5.85-7.409 2.311-1.913 4.811-3.264 7.502-4.055a21.44 21.44 0 0 1 8.23-.777c2.796.276 5.478 1.088 8.041 2.437 3.563 1.874 6.394 4.39 8.494 7.55 2.098 3.157 3.249 6.707 3.45 10.645.203 3.938-.77 7.95-2.917 12.032-2.173 4.13-4.923 7.19-8.247 9.184-3.326 1.99-6.862 2.996-10.609 3.018-3.747.02-7.31-.856-10.686-2.631-.57-.301-1.14-.632-1.71-.993s-1.032-.665-1.387-.914l15.35-29.175c-1.979-.798-3.918-1.097-5.819-.9-1.9.195-3.6.834-5.098 1.916-1.498 1.082-2.689 2.464-3.574 4.146a12.584 12.584 0 0 0-1.456 6.178c.04 2.197.663 4.012 1.872 5.447l-6.664 7.07c-1.441-1.923-2.458-4.129-3.05-6.616-.591-2.49-.702-5.107-.329-7.855.373-2.746 1.291-5.513 2.757-8.299Zm27.598 1.916-10.385 19.74c1.978.796 3.894 1.113 5.746.954a10.588 10.588 0 0 0 5.077-1.791c1.532-1.033 2.767-2.44 3.701-4.217.91-1.728 1.35-3.506 1.32-5.33a10.645 10.645 0 0 0-1.42-5.161c-.915-1.617-2.263-3.016-4.04-4.195ZM594.822 540.359l24.985 20.111 3.522-4.374 6.468 5.206-3.522 4.376 2.029 1.634c2.748 2.21 4.76 4.579 6.036 7.104 1.276 2.526 1.792 5.065 1.547 7.62s-1.269 4.953-3.072 7.193a21.867 21.867 0 0 1-3.801 3.682 28.363 28.363 0 0 1-4.75 2.916l-5.028-6.867c.85-.364 1.73-.873 2.644-1.531s1.676-1.368 2.288-2.13c1.157-1.437 1.535-2.943 1.133-4.52s-1.576-3.152-3.52-4.716l-2.346-1.888-6.534 8.117-6.468-5.207 6.534-8.117-24.984-20.112 6.84-8.497ZM564.527 573.068c2.493-2.42 5.135-4.177 7.924-5.277 2.79-1.1 5.587-1.589 8.39-1.465 2.802.122 5.489.767 8.06 1.937 2.573 1.17 4.867 2.795 6.885 4.874 2.055 2.118 3.628 4.48 4.72 7.085a21.585 21.585 0 0 1 1.693 8.117c.037 2.804-.536 5.586-1.718 8.342-1.183 2.755-3.02 5.341-5.513 7.761-2.493 2.418-5.125 4.168-7.896 5.248-2.77 1.078-5.567 1.569-8.389 1.465a20.684 20.684 0 0 1-8.061-1.937c-2.553-1.188-4.856-2.842-6.911-4.96-2.018-2.08-3.582-4.414-4.694-7a21.04 21.04 0 0 1-1.721-8.087c-.038-2.807.535-5.586 1.717-8.342 1.184-2.754 3.022-5.342 5.514-7.761Zm23.198 7.892c-1.707-1.758-3.568-2.973-5.584-3.651-2.018-.675-4.001-.81-5.95-.402-1.949.405-3.682 1.348-5.202 2.822-1.48 1.436-2.443 3.131-2.891 5.086-.447 1.953-.373 3.96.221 6.014.596 2.055 1.745 3.963 3.452 5.72 1.668 1.721 3.53 2.917 5.585 3.595 2.055.675 4.058.81 6.005.402 1.95-.406 3.664-1.328 5.145-2.764 1.518-1.475 2.502-3.19 2.949-5.143.447-1.957.364-3.95-.251-5.988s-1.774-3.933-3.48-5.691ZM544.41 633.755c2.646-1.99 4.626-4.28 5.942-6.864 1.315-2.585 1.71-5.173 1.186-7.765L536.03 598.5l8.718-6.557 25.393 33.766-8.003 6.02-5.235-6.964c.547 3.256.393 6.258-.46 9.004s-2.274 4.971-4.257 6.664l-1.107.834c-.26.194-.493.334-.699.422l-5.969-7.935ZM504.23 618.473c2.965-1.703 5.934-2.746 8.909-3.125 2.974-.38 5.81-.183 8.506.588a21.43 21.43 0 0 1 7.368 3.75c2.214 1.729 4.044 3.85 5.487 6.364 2.006 3.488 3.05 7.128 3.133 10.921.083 3.791-.845 7.405-2.782 10.84-1.938 3.434-4.907 6.303-8.906 8.6-4.047 2.328-8.008 3.44-11.882 3.344-3.874-.098-7.4-1.14-10.577-3.127-3.175-1.989-5.715-4.637-7.617-7.946a25.013 25.013 0 0 1-.914-1.752 41.523 41.523 0 0 1-.683-1.513l28.584-16.43c-1.245-1.73-2.723-3.023-4.433-3.873-1.71-.854-3.487-1.223-5.333-1.111-1.844.113-3.589.642-5.236 1.588a12.587 12.587 0 0 0-4.537 4.44c-1.143 1.878-1.588 3.743-1.334 5.603l-9.415 2.406c-.188-2.397.134-4.805.966-7.223s2.14-4.69 3.925-6.809c1.786-2.123 4.043-3.968 6.771-5.535Zm22.286 16.391-19.338 11.115c1.246 1.73 2.694 3.026 4.343 3.881 1.652.856 3.4 1.258 5.247 1.205 1.847-.052 3.643-.58 5.383-1.58 1.694-.973 3.017-2.238 3.968-3.795a10.646 10.646 0 0 0 1.565-5.12c.091-1.856-.298-3.76-1.168-5.706ZM491.07 650.925c1.443 3.814 1.987 7.552 1.631 11.216-.355 3.663-1.535 6.907-3.543 9.73-2.007 2.827-4.735 4.892-8.187 6.196-2.944 1.115-5.87 1.395-8.778.84-2.908-.553-5.443-1.7-7.608-3.432l8.754 23.147-10.203 3.86-16.701-44.163c-.404-1.066-.869-1.76-1.398-2.084-.526-.322-1.241-.37-2.144-.144l-3.138-8.301c1.643-1.025 3.022-1.752 4.138-2.174 1.828-.691 3.511-.805 5.048-.344 1.54.463 2.662 1.4 3.371 2.817l1.104 2.455c.531-3.045 1.804-5.701 3.816-7.97 2.015-2.27 4.392-3.925 7.133-4.962s5.466-1.463 8.174-1.285c2.709.182 5.264.879 7.667 2.094 2.403 1.213 4.544 2.887 6.422 5.017 1.88 2.127 3.36 4.625 4.442 7.487ZM457.8 657.53l3.53 9.336c1.055 1.252 2.357 2.24 3.905 2.963a14.393 14.393 0 0 0 4.763 1.314c1.624.155 3.122-.027 4.493-.547 1.574-.595 2.873-1.455 3.897-2.582a11.522 11.522 0 0 0 2.323-3.867c.525-1.453.756-2.99.691-4.617-.063-1.627-.397-3.234-1-4.828s-1.438-2.998-2.508-4.217a11.316 11.316 0 0 0-3.72-2.818 12.046 12.046 0 0 0-4.473-1.127c-1.571-.088-3.143.166-4.718.76-.963.365-1.88.896-2.748 1.595a12.92 12.92 0 0 0-2.308 2.408 11.103 11.103 0 0 0-1.57 2.987 9.775 9.775 0 0 0-.557 3.24ZM418.241 651.544c2.767-.557 5.417-.522 7.95.105a18.015 18.015 0 0 1 6.913 3.39c2.072 1.636 3.819 3.642 5.238 6.017 1.42 2.376 2.419 5.005 2.999 7.884.612 3.037.702 5.957.27 8.764-.431 2.803-1.31 5.379-2.637 7.725a18.396 18.396 0 0 1-5.211 5.877c-2.147 1.568-4.657 2.642-7.53 3.22-3.245.655-6.237.51-8.973-.435-2.737-.942-5.15-2.479-7.239-4.604l1.479 7.342-9.337 1.881-7.966-39.555c-.83-4.12-.543-7.851.862-11.185 1.405-3.334 3.706-6.135 6.903-8.4s7.03-3.85 11.499-4.75c4.523-.91 8.506-.924 11.95-.04s6.562 2.487 9.354 4.801l-4.685 6.838c-1.992-1.645-4.31-2.785-6.957-3.414a18.532 18.532 0 0 0-8.04-.125c-2.285.46-4.296 1.271-6.028 2.426-1.732 1.156-3.006 2.664-3.824 4.521-.815 1.858-.958 4.108-.425 6.748l1.06 5.268c.901-2.674 2.484-4.916 4.748-6.729a17.616 17.616 0 0 1 7.627-3.57Zm-1.872 9.262a10.245 10.245 0 0 0-3.24 1.236c-.988.588-1.87 1.293-2.645 2.115s-1.42 1.744-1.935 2.764c-.513 1.02-.865 2.021-1.056 3.004l2.016 10.006c.971 1.527 2.153 2.789 3.544 3.785s2.859 1.687 4.402 2.07a10.45 10.45 0 0 0 4.63.11c1.65-.333 3.071-.981 4.26-1.942 1.191-.96 2.138-2.166 2.843-3.611a14.478 14.478 0 0 0 1.357-4.606c.199-1.625.132-3.261-.201-4.916-.345-1.709-.958-3.25-1.846-4.627-.886-1.377-1.961-2.521-3.224-3.431a11.57 11.57 0 0 0-4.203-1.905 10.993 10.993 0 0 0-4.702-.052ZM366.778 658.022c3.416-.138 6.53.315 9.342 1.354 2.813 1.04 5.235 2.53 7.269 4.46s3.63 4.178 4.793 6.735c1.162 2.559 1.802 5.285 1.919 8.18.162 4.021-.597 7.732-2.28 11.133-1.682 3.398-4.178 6.172-7.486 8.32-3.307 2.146-7.266 3.314-11.876 3.5-4.662.187-8.689-.658-12.078-2.54-3.389-1.88-6.031-4.437-7.927-7.67s-2.92-6.753-3.074-10.565a24.679 24.679 0 0 1 0-1.977c.028-.674.061-1.227.097-1.658l32.942-1.328c-.302-2.114-1.015-3.942-2.136-5.487-1.12-1.547-2.524-2.699-4.213-3.455a11.858 11.858 0 0 0-5.377-1.015c-2.169.088-4.194.699-6.077 1.834-1.882 1.136-3.14 2.584-3.776 4.347l-9.46-2.224c.944-2.211 2.345-4.196 4.201-5.953 1.857-1.76 4.068-3.166 6.633-4.22 2.564-1.054 5.42-1.644 8.564-1.77Zm12.164 24.846-22.287.9c.303 2.112.988 3.926 2.054 5.45s2.43 2.69 4.092 3.498 3.497 1.173 5.503 1.091c1.952-.078 3.71-.587 5.274-1.527a10.616 10.616 0 0 0 3.757-3.814c.94-1.602 1.477-3.47 1.607-5.598Z"/></g></svg>